# xmcd
#
# Track frame offsets:
#	150
#	17834
#	34489
#	56036
#	66515
#	79764
#	96762
#	110010
#
# Disc length: 1910 seconds
#
# Revision: 0
# Processed by: cddbd v1.5.2PL0 Copyright (c) Steve Scherf et al.
# Submitted via: EZCDAudioConverter 2.1.7.1
#
DISCID=6f077408
DTITLE=Chico Hamilton With Paul Horn - Chico Hamilton With Paul Horn (1963)
DYEAR=1900
DGENRE=
TTITLE0=Porch Light
TTITLE1=Autumn Landscape
TTITLE2=Uyawda
TTITLE3=Lolly Pop
TTITLE4=Pluck It
TTITLE5=Katz Up
TTITLE6=Crazy Cats aka Classical Katz
TTITLE7=Lord Randall
EXTD=
EXTT0=
EXTT1=
EXTT2=
EXTT3=
EXTT4=
EXTT5=
EXTT6=
EXTT7=
PLAYORDER=
